<svg xmlns="http://www.w3.org/2000/svg" xmlns:xlink="http://www.w3.org/1999/xlink" width="0" height="0" style="position:absolute">

<symbol id="calendar" viewBox="0 0 32 32">
        <path fill="#444" d="M29.334 3H25V1c0-.553-.447-1-1-1s-1 .447-1 1v2h-6V1c0-.553-.448-1-1-1s-1 .447-1 1v2H9V1c0-.553-.448-1-1-1S7 .447 7 1v2H2.667C1.194 3 0 4.193 0 5.666v23.667C0 30.806 1.194 32 2.667 32h26.667C30.807 32 32 30.806 32 29.333V5.666C32 4.193 30.807 3 29.334 3zM30 29.333c0 .368-.3.667-.666.667H2.667C2.3 30 2 29.7 2 29.333V5.666C2 5.3 2.3 5 2.667 5H7v2c0 .553.448 1 1 1s1-.447 1-1V5h6v2c0 .553.448 1 1 1s1-.447 1-1V5h6v2c0 .553.447 1 1 1s1-.447 1-1V5h4.334c.367 0 .666.3.666.666v23.667zM7 12h4v3H7zm0 5h4v3H7zm0 5h4v3H7zm7 0h4v3h-4zm0-5h4v3h-4zm0-5h4v3h-4zm7 10h4v3h-4zm0-5h4v3h-4zm0-5h4v3h-4z"/>
</symbol>

<symbol id="mouse" viewBox="0 0 32 32">
        <path fill="currentColor" d="M15.5 16c-2.21 0-4-1.79-4-4h-6v10c0 5.522 4.477 10 10 10s10-4.478 10-10V12h-6c0 2.21-1.79 4-4 4zm-4-8c0-2.21 1.79-4 4-4s4 1.79 4 4v2h6c0-5.523-4.477-10-10-10s-10 4.477-10 10h6V8zm3-1v6c0 .552.448 1 1 1s1-.448 1-1V7c0-.552-.448-1-1-1s-1 .448-1 1z"/>
</symbol>

<symbol id="play2" viewBox="0 0 32 32">
        <path fill="#444" d="M16 0C7.163 0 0 7.163 0 16s7.163 16 16 16 16-7.163 16-16S24.837 0 16 0zm0 29C8.82 29 3 23.18 3 16S8.82 3 16 3s13 5.82 13 13-5.82 13-13 13zM12 9l12 7-12 7z"/>
</symbol>

<symbol id="price-tag" viewBox="0 0 32 32">
        <path fill="#444" d="M30.5 0h-12c-.825 0-1.977.477-2.56 1.06L1.06 15.94c-.583.583-.583 1.538 0 2.12l12.88 12.88c.582.583 1.537.583 2.12 0l14.88-14.88C31.52 15.48 32 14.326 32 13.5v-12c0-.825-.675-1.5-1.5-1.5zM23 12c-1.657 0-3-1.343-3-3s1.343-3 3-3 3 1.343 3 3-1.343 3-3 3z"/>
</symbol>

<symbol id="rocket" viewBox="0 0 13 14">
        <path fill="#444" d="M11.25 3.5q0-.312-.22-.53t-.53-.22-.53.22-.22.53.22.53.53.22.53-.22.22-.53zM13 1.25q0 1.945-.59 3.363T10.43 7.43q-.633.624-1.523 1.374l-.156 2.96q-.015.126-.124.204l-3 1.75q-.055.03-.125.03-.093 0-.18-.07l-.5-.5q-.1-.108-.06-.25l.663-2.155-2.195-2.195-2.156.664q-.023.008-.07.008-.11 0-.18-.07l-.5-.5q-.133-.148-.04-.305l1.75-3q.08-.11.204-.125l2.96-.156q.75-.89 1.376-1.523 1.47-1.46 2.797-2.015T12.735 1q.11 0 .187.074T13 1.25z"/>
</symbol>

<symbol id="youtube4" viewBox="0 0 80 32">
        <path fill="currentColor" d="M10.75 5.294c.007-.027.01-.046.012-.056l.033-.236-1.48-.008c-1.337-.008-1.746 0-1.783.034-.018.016-.48 1.77-1.302 4.946-.392 1.515-.723 2.725-.734 2.69s-.48-1.767-1.044-3.844C3.89 6.742 3.418 5.03 3.404 5.017 3.384 4.997 1.592 4.99.14 5c-.21.003-.326-.41 1.877 6.6.305.97.762 2.343 1.015 3.05.292.818.5 1.45.642 1.975.25 1.002.26 1.63.205 2.363-.064.847-.074 6.826-.012 6.926.047.077 2.85.112 3.116.04.042-.012.07-.053.09-.28.066-.193.07-.967.07-4.18v-4.102l.18-.566c.117-.37.413-1.344.656-2.163s.538-1.8.654-2.18C9.69 9.036 10.7 5.645 10.728 5.45l.022-.157zM26.44 10.27v.214h-.033l-.02 5.906-.017 5.726-.458.467c-.513.522-.925.722-1.297.63-.405-.103-.395.055-.43-6.713l-.03-6.23h-2.947v.214h-.034v6.76c0 7.24 0 7.236.367 7.964.294.58.72.86 1.45.958.963.128 2-.308 2.963-1.244l.418-.407v.7c0 .607.018.707.128.738.18.05 2.412.053 2.653.004l.2-.04v-.208l.035-.008V10.23l-2.944.04zM18.965 13.323c-.28-1.198-.802-2.004-1.664-2.56-1.352-.876-2.896-.968-4.33-.26-1.045.516-1.717 1.372-2.065 2.628-.04.15-.072.276-.095.464-.088.443-.1 1.105-.122 4.186-.035 4.748.02 5.313.614 6.39.583 1.06 1.794 1.834 3.112 1.994.397.048 1.2-.027 1.663-.155 1.05-.292 2.058-1.123 2.504-2.066.193-.407.31-.69.38-1.208.13-.707.14-1.85.14-4.762 0-3.715-.012-4.12-.136-4.65zM15.605 23c-.248.188-.68.27-1.032.195-.27-.058-.636-.482-.748-.87-.14-.48-.15-7.186-.03-8.5.2-.66.756-1.003 1.364-.84.473.13.715.425.853 1.047.103.46.115 1.035.093 4.414-.014 2.24-.022 3.336-.096 3.924-.074.37-.197.47-.407.63zM71.887 16.692h1.424l-.022-1.29c-.022-1.183-.04-1.32-.198-1.64-.25-.507-.617-.73-1.2-.73-.702 0-1.147.338-1.357 1.035-.09.296-.183 2.334-.116 2.51.038.098.24.116 1.47.116zM62.37 13.757c-.19-.383-.544-.57-.955-.556-.32.012-.674.147-1.015.408l-.254.193v9.27l.254.193c.576.44 1.21.532 1.644.24.172-.114.285-.273.372-.526.114-.33.124-.75.11-4.65-.016-4.063-.025-4.302-.158-4.57z"/><path fill="#444" d="M80.027 9.582c-.284-3.4-.51-4.505-1.21-5.923-.93-1.88-2.273-2.87-4.185-3.087-1.478-.168-7.04-.405-12.19-.52-8.91-.198-23.563.183-25.435.662-.865.22-1.513.597-2.188 1.27-1.184 1.176-1.888 2.864-2.17 5.2-.648 5.33-.66 11.772-.038 17.296.268 2.377.82 3.92 1.857 5.193.646.794 1.76 1.47 2.757 1.67.7.14 4.2.337 9.3.52.76.028 2.77.075 4.47.106 3.54.062 10.05.025 13.772-.08 2.503-.07 7.068-.255 7.92-.32.24-.02.797-.055 1.237-.08 1.477-.083 2.417-.393 3.3-1.086 1.142-.897 2.027-2.556 2.4-4.5.354-1.84.59-5.12.638-8.84.04-3.11-.013-4.787-.238-7.482zM44.54 8.35l-1.656.02-.073 17.66-1.434.02c-1.11.014-1.447-.002-1.474-.074-.02-.05-.042-4.032-.052-8.85l-.018-8.757-3.234-.042v-2.76l9.557.04.04 2.72-1.655.02zm10.154 10.122v7.595h-2.616v-.8c0-.6-.023-.798-.093-.798-.05 0-.288.197-.527.44-.517.526-1.13.95-1.653 1.145-1.083.405-2.112.17-2.55-.586-.402-.692-.41-.846-.41-8.01v-6.58h2.614l.02 6.195c.018 6.088.02 6.2.167 6.448.193.33.488.417.956.288.276-.075.464-.21.91-.653l.564-.56V10.878h2.616v7.594zm10.205 6.51c-.23.513-.745 1.016-1.166 1.14-1.1.324-1.98.06-2.998-.897-.316-.297-.61-.538-.654-.538-.053 0-.082.233-.082.69v.69h-2.616V5.572H60v3.343c0 1.84.025 3.343.054 3.343s.306-.244.613-.54c.707-.684 1.298-.982 2.05-1.04 1.337-.1 2.134.588 2.5 2.16.114.492.125 1.052.125 5.597 0 5.537 0 5.56-.443 6.546zm11.068-3.04c-.023.57-.092 1.224-.154 1.455-.364 1.35-1.332 2.304-2.732 2.696-1.885.527-3.96-.337-4.788-1.994-.465-.93-.48-1.117-.48-5.663 0-3.707.012-4.162.13-4.667.337-1.43 1.17-2.357 2.58-2.87.407-.15.834-.226 1.26-.235 1.52-.03 3.03.787 3.663 2.12.427.898.48 1.282.522 3.815l.038 2.27-5.578.04-.02 1.526c-.03 2.153.116 2.815.697 3.207.49.33 1.24.305 1.65-.055.382-.337.49-.698.528-1.753l.034-.927h2.693l-.043 1.036z"/>
</symbol>
</svg>
