<svg xmlns="http://www.w3.org/2000/svg" xmlns:xlink="http://www.w3.org/1999/xlink" width="0" height="0" style="position:absolute">

<symbol id="calendar" viewBox="0 0 32 32">
        <path fill="#444" d="M29.334 3H25V1c0-.553-.447-1-1-1s-1 .447-1 1v2h-6V1c0-.553-.448-1-1-1s-1 .447-1 1v2H9V1c0-.553-.448-1-1-1S7 .447 7 1v2H2.667C1.194 3 0 4.193 0 5.666v23.667C0 30.806 1.194 32 2.667 32h26.667C30.807 32 32 30.806 32 29.333V5.666C32 4.193 30.807 3 29.334 3zM30 29.333c0 .368-.3.667-.666.667H2.667C2.3 30 2 29.7 2 29.333V5.666C2 5.3 2.3 5 2.667 5H7v2c0 .553.448 1 1 1s1-.447 1-1V5h6v2c0 .553.448 1 1 1s1-.447 1-1V5h6v2c0 .553.447 1 1 1s1-.447 1-1V5h4.334c.367 0 .666.3.666.666v23.667zM7 12h4v3H7zm0 5h4v3H7zm0 5h4v3H7zm7 0h4v3h-4zm0-5h4v3h-4zm0-5h4v3h-4zm7 10h4v3h-4zm0-5h4v3h-4zm0-5h4v3h-4z"/>
</symbol>

<symbol id="mouse" viewBox="0 0 32 32">
        <path fill="#444" d="M15.5 16c-2.21 0-4-1.79-4-4h-6v10c0 5.522 4.477 10 10 10s10-4.478 10-10V12h-6c0 2.21-1.79 4-4 4zm-4-8c0-2.21 1.79-4 4-4s4 1.79 4 4v2h6c0-5.523-4.477-10-10-10s-10 4.477-10 10h6V8zm3-1v6c0 .552.448 1 1 1s1-.448 1-1V7c0-.552-.448-1-1-1s-1 .448-1 1z"/>
</symbol>

<symbol id="price-tag" viewBox="0 0 32 32">
        <path fill="#444" d="M30.5 0h-12c-.825 0-1.977.477-2.56 1.06L1.06 15.94c-.583.583-.583 1.538 0 2.12l12.88 12.88c.582.583 1.537.583 2.12 0l14.88-14.88C31.52 15.48 32 14.326 32 13.5v-12c0-.825-.675-1.5-1.5-1.5zM23 12c-1.657 0-3-1.343-3-3s1.343-3 3-3 3 1.343 3 3-1.343 3-3 3z"/>
</symbol>

<symbol id="rocket" viewBox="0 0 13 14">
        <path fill="#444" d="M11.25 3.5q0-.312-.22-.53t-.53-.22-.53.22-.22.53.22.53.53.22.53-.22.22-.53zM13 1.25q0 1.945-.59 3.363T10.43 7.43q-.633.624-1.523 1.374l-.156 2.96q-.015.126-.124.204l-3 1.75q-.055.03-.125.03-.093 0-.18-.07l-.5-.5q-.1-.108-.06-.25l.663-2.155-2.195-2.195-2.156.664q-.023.008-.07.008-.11 0-.18-.07l-.5-.5q-.133-.148-.04-.305l1.75-3q.08-.11.204-.125l2.96-.156q.75-.89 1.376-1.523 1.47-1.46 2.797-2.015T12.735 1q.11 0 .187.074T13 1.25z"/>
</symbol>
</svg>